<?xml version="1.0" encoding="UTF-8" standalone="no"?>
<!-- Created with Inkscape (http://www.inkscape.org/) -->

<svg
   xmlns:dc="http://purl.org/dc/elements/1.1/"
   xmlns:cc="http://creativecommons.org/ns#"
   xmlns:rdf="http://www.w3.org/1999/02/22-rdf-syntax-ns#"
   xmlns:svg="http://www.w3.org/2000/svg"
   xmlns="http://www.w3.org/2000/svg"
   xmlns:sodipodi="http://sodipodi.sourceforge.net/DTD/sodipodi-0.dtd"
   xmlns:inkscape="http://www.inkscape.org/namespaces/inkscape"
   width="11"
   height="16"
   viewBox="0 0 11 16"
   id="svg2"
   version="1.1"
   inkscape:version="0.91 r13725"
   sodipodi:docname="golf_z15.svg">
  <defs
     id="defs4" />
  <sodipodi:namedview
     id="base"
     pagecolor="#ffffff"
     bordercolor="#666666"
     borderopacity="1.0"
     inkscape:pageopacity="0.0"
     inkscape:pageshadow="2"
     inkscape:zoom="14.481528"
     inkscape:cx="19.488189"
     inkscape:cy="28.346457"
     inkscape:document-units="px"
     inkscape:current-layer="layer1"
     showgrid="false"
     inkscape:window-width="1791"
     inkscape:window-height="1019"
     inkscape:window-x="0"
     inkscape:window-y="32"
     inkscape:window-maximized="1"
     units="px" />
  <metadata
     id="metadata7">
    <rdf:RDF>
      <cc:Work
         rdf:about="">
        <dc:format>image/svg+xml</dc:format>
        <dc:type
           rdf:resource="http://purl.org/dc/dcmitype/StillImage" />
        <dc:title></dc:title>
      </cc:Work>
    </rdf:RDF>
  </metadata>
  <g
     inkscape:label="Layer 1"
     inkscape:groupmode="layer"
     id="layer1"
     transform="translate(0,-1036.3622)">
    <path
       style="color:#000000;font-style:normal;font-variant:normal;font-weight:normal;font-stretch:normal;font-size:medium;line-height:normal;font-family:sans-serif;text-indent:0;text-align:start;text-decoration:none;text-decoration-line:none;text-decoration-style:solid;text-decoration-color:#000000;letter-spacing:normal;word-spacing:normal;text-transform:none;direction:ltr;block-progression:tb;writing-mode:lr-tb;baseline-shift:baseline;text-anchor:start;white-space:normal;clip-rule:nonzero;display:inline;overflow:visible;visibility:visible;opacity:1;isolation:auto;mix-blend-mode:normal;color-interpolation:sRGB;color-interpolation-filters:linearRGB;solid-color:#000000;solid-opacity:1;fill:#000000;fill-opacity:1;fill-rule:evenodd;stroke:#ffffff;stroke-width:0.16441105;stroke-linecap:round;stroke-linejoin:round;stroke-miterlimit:4;stroke-dasharray:none;stroke-dashoffset:0;stroke-opacity:1;color-rendering:auto;image-rendering:auto;shape-rendering:auto;text-rendering:auto;enable-background:accumulate"
       d="m 5.4999999,1045.4421 c -1.3243531,0 -2.5282033,0.3276 -3.423732,0.8811 -0.8955279,0.5535 -1.50217683,1.3606 -1.50217683,2.2889 0,0.9284 0.60664893,1.7355 1.50217683,2.2889 0.8955287,0.5535 2.0993789,0.8812 3.423732,0.8812 1.3243523,0 2.5275612,-0.3277 3.4230891,-0.8812 0.8955279,-0.5534 1.50282,-1.3605 1.50282,-2.2889 0,-0.9283 -0.6072921,-1.7354 -1.50282,-2.2889 -0.8955279,-0.5535 -2.0987368,-0.8811 -3.4230891,-0.8811 z m 0,0.6576 c 1.2145228,0 2.3092958,0.3081 3.077569,0.7829 0.7682732,0.4748 1.1906956,1.0888 1.1906956,1.7295 0,0.6408 -0.4224224,1.2547 -1.1906956,1.7296 -0.7682732,0.4748 -1.8630462,0.7828 -3.077569,0.7828 -1.2145228,0 -2.3092966,-0.308 -3.077569,-0.7828 -0.7682732,-0.4749 -1.1906956,-1.0888 -1.1906956,-1.7296 0,-0.6407 0.4224224,-1.2547 1.1906956,-1.7295 0.7682724,-0.4748 1.8630462,-0.7829 3.077569,-0.7829 z"
       id="path8091"
       inkscape:connector-curvature="0" />
    <path
       style="color:#000000;clip-rule:nonzero;display:inline;overflow:visible;visibility:visible;opacity:1;isolation:auto;mix-blend-mode:normal;color-interpolation:sRGB;color-interpolation-filters:linearRGB;solid-color:#000000;solid-opacity:1;fill:#000000;fill-opacity:1;fill-rule:evenodd;stroke:#ffffff;stroke-width:0.31554809;stroke-linecap:round;stroke-linejoin:round;stroke-miterlimit:4;stroke-dasharray:none;stroke-dashoffset:0;stroke-opacity:1;color-rendering:auto;image-rendering:auto;shape-rendering:auto;text-rendering:auto;enable-background:accumulate"
       d="m 4.894292,1036.8292 c 0.073757,3.2291 0.038934,8.4619 0.038934,11.6914 l 1.2776643,0 0,-6.8265 4.0380427,-2.1903 c -1.426872,-0.6358 -2.6879059,-1.1532 -5.354641,-2.6746 z"
       id="rect8087"
       inkscape:connector-curvature="0"
       sodipodi:nodetypes="cccccc" />
  </g>
</svg>
