<?xml version="1.0" encoding="UTF-8" standalone="no"?>
<!-- Created with Inkscape (http://www.inkscape.org/) -->

<svg
   xmlns:dc="http://purl.org/dc/elements/1.1/"
   xmlns:cc="http://creativecommons.org/ns#"
   xmlns:rdf="http://www.w3.org/1999/02/22-rdf-syntax-ns#"
   xmlns:svg="http://www.w3.org/2000/svg"
   xmlns="http://www.w3.org/2000/svg"
   xmlns:sodipodi="http://sodipodi.sourceforge.net/DTD/sodipodi-0.dtd"
   xmlns:inkscape="http://www.inkscape.org/namespaces/inkscape"
   width="9mm"
   height="11mm"
   viewBox="0 0 31.889764 38.976378"
   id="svg2"
   version="1.1"
   inkscape:version="0.91 r13725"
   sodipodi:docname="golf.svg">
  <defs
     id="defs4" />
  <sodipodi:namedview
     id="base"
     pagecolor="#ffffff"
     bordercolor="#666666"
     borderopacity="1.0"
     inkscape:pageopacity="0.0"
     inkscape:pageshadow="2"
     inkscape:zoom="21.06404"
     inkscape:cx="15.944882"
     inkscape:cy="19.488189"
     inkscape:document-units="px"
     inkscape:current-layer="layer1"
     showgrid="false"
     inkscape:window-width="1791"
     inkscape:window-height="1019"
     inkscape:window-x="0"
     inkscape:window-y="32"
     inkscape:window-maximized="1" />
  <metadata
     id="metadata7">
    <rdf:RDF>
      <cc:Work
         rdf:about="">
        <dc:format>image/svg+xml</dc:format>
        <dc:type
           rdf:resource="http://purl.org/dc/dcmitype/StillImage" />
        <dc:title></dc:title>
      </cc:Work>
    </rdf:RDF>
  </metadata>
  <g
     inkscape:label="Layer 1"
     inkscape:groupmode="layer"
     id="layer1"
     transform="translate(0,-1013.3858)">
    <path
       style="color:#000000;font-style:normal;font-variant:normal;font-weight:normal;font-stretch:normal;font-size:medium;line-height:normal;font-family:sans-serif;text-indent:0;text-align:start;text-decoration:none;text-decoration-line:none;text-decoration-style:solid;text-decoration-color:#000000;letter-spacing:normal;word-spacing:normal;text-transform:none;direction:ltr;block-progression:tb;writing-mode:lr-tb;baseline-shift:baseline;text-anchor:start;white-space:normal;clip-rule:nonzero;display:inline;overflow:visible;visibility:visible;opacity:1;isolation:auto;mix-blend-mode:normal;color-interpolation:sRGB;color-interpolation-filters:linearRGB;solid-color:#000000;solid-opacity:1;fill:#000000;fill-opacity:1;fill-rule:evenodd;stroke:#ffffff;stroke-width:0.50000004;stroke-linecap:round;stroke-linejoin:round;stroke-miterlimit:4;stroke-dasharray:none;stroke-dashoffset:0;stroke-opacity:1;color-rendering:auto;image-rendering:auto;shape-rendering:auto;text-rendering:auto;enable-background:accumulate"
       d="m 15.761719,1032.6094 c -4.027566,0 -7.6886661,0.9965 -10.4121096,2.6797 -2.7234435,1.6831 -4.5683594,4.1377 -4.5683594,6.9609 0,2.8232 1.8449159,5.2778 4.5683594,6.9609 2.7234435,1.6832 6.3845436,2.6797 10.4121096,2.6797 4.027566,0 7.686713,-0.9965 10.410156,-2.6797 2.723443,-1.6831 4.570313,-4.1377 4.570313,-6.9609 0,-2.8232 -1.84687,-5.2778 -4.570313,-6.9609 -2.723443,-1.6832 -6.38259,-2.6797 -10.410156,-2.6797 z m 0,2 c 3.693555,0 7.022935,0.9368 9.359375,2.3808 2.33644,1.444 3.621093,3.3111 3.621094,5.2598 0,1.9487 -1.284654,3.8158 -3.621094,5.2598 -2.33644,1.444 -5.66582,2.3808 -9.359375,2.3808 -3.693556,0 -7.0229354,-0.9368 -9.3593752,-2.3808 -2.3364399,-1.444 -3.6210938,-3.3111 -3.6210938,-5.2598 0,-1.9487 1.2846539,-3.8158 3.6210938,-5.2598 2.3364398,-1.444 5.6658192,-2.3808 9.3593752,-2.3808 z"
       id="path8091"
       inkscape:connector-curvature="0" />
    <path
       style="color:#000000;clip-rule:nonzero;display:inline;overflow:visible;visibility:visible;opacity:1;isolation:auto;mix-blend-mode:normal;color-interpolation:sRGB;color-interpolation-filters:linearRGB;solid-color:#000000;solid-opacity:1;fill:#000000;fill-opacity:1;fill-rule:evenodd;stroke:#ffffff;stroke-width:1.00000009;stroke-linecap:round;stroke-linejoin:round;stroke-miterlimit:4;stroke-dasharray:none;stroke-dashoffset:0;stroke-opacity:1;color-rendering:auto;image-rendering:auto;shape-rendering:auto;text-rendering:auto;enable-background:accumulate"
       d="M 13.222656,0.23828125 C 13.444659,11.012433 13.339844,21.79053 13.339844,32.566406 l 3.845703,0 0,-16.095703 12.154297,-7.3085936 z"
       transform="translate(0,1013.3858)"
       id="rect8087"
       inkscape:connector-curvature="0"
       sodipodi:nodetypes="cccccc" />
  </g>
</svg>
